<svg xmlns="http://www.w3.org/2000/svg" width="1600" height="1000" viewBox="0 0 1600 1000" fill="none">
  <defs>
    <linearGradient id="bg2" x1="0" y1="0" x2="1" y2="1">
      <stop offset="0" stop-color="#1D4ED8" />
      <stop offset="1" stop-color="#1E3A8A" />
    </linearGradient>
    <radialGradient id="sun" cx="0" cy="0" r="1" gradientUnits="userSpaceOnUse" gradientTransform="translate(320 220) rotate(90) scale(260)">
      <stop stop-color="#FDE68A" stop-opacity="0.95" />
      <stop offset="1" stop-color="#FDE68A" stop-opacity="0" />
    </radialGradient>
  </defs>
  <rect width="1600" height="1000" fill="url(#bg2)"/>
  <rect width="1600" height="1000" fill="url(#sun)"/>
  <path d="M0 730C280 650 440 760 700 710C980 650 1180 760 1600 690V1000H0V730Z" fill="#60A5FA" opacity="0.72"/>
  <path d="M0 780C320 710 520 820 760 790C1060 740 1300 850 1600 790V1000H0V780Z" fill="#BFDBFE" opacity="0.68"/>
  <g fill="#E0F2FE" opacity="0.9">
    <rect x="380" y="520" width="120" height="140" rx="16"/>
    <rect x="560" y="500" width="120" height="160" rx="16"/>
    <rect x="740" y="470" width="120" height="190" rx="16"/>
    <rect x="920" y="530" width="120" height="130" rx="16"/>
    <rect x="1100" y="500" width="120" height="160" rx="16"/>
  </g>
</svg>
