<svg xmlns="http://www.w3.org/2000/svg" width="1600" height="1000" viewBox="0 0 1600 1000" fill="none">
  <defs>
    <linearGradient id="bg" x1="0" y1="0" x2="1" y2="1">
      <stop offset="0" stop-color="#0F766E" />
      <stop offset="1" stop-color="#164E63" />
    </linearGradient>
    <radialGradient id="glow" cx="0" cy="0" r="1" gradientUnits="userSpaceOnUse" gradientTransform="translate(1180 300) rotate(90) scale(420 560)">
      <stop stop-color="#67E8F9" stop-opacity="0.55" />
      <stop offset="1" stop-color="#67E8F9" stop-opacity="0" />
    </radialGradient>
  </defs>
  <rect width="1600" height="1000" fill="url(#bg)"/>
  <rect width="1600" height="1000" fill="url(#glow)"/>
  <g opacity="0.32" stroke="#ECFEFF" stroke-width="2">
    <path d="M180 260L540 350L900 220L1260 340L1450 210"/>
    <path d="M120 520L430 650L760 560L1100 670L1460 610"/>
    <path d="M200 760L540 830L900 760L1210 860L1450 820"/>
  </g>
  <g fill="#A5F3FC">
    <circle cx="540" cy="350" r="12"/>
    <circle cx="900" cy="220" r="12"/>
    <circle cx="1260" cy="340" r="12"/>
    <circle cx="430" cy="650" r="10"/>
    <circle cx="760" cy="560" r="10"/>
    <circle cx="1100" cy="670" r="10"/>
  </g>
</svg>
