<svg xmlns="http://www.w3.org/2000/svg" width="1600" height="1000" viewBox="0 0 1600 1000" fill="none">
  <defs>
    <linearGradient id="bg3" x1="0" y1="0" x2="1" y2="1">
      <stop offset="0" stop-color="#0369A1" />
      <stop offset="1" stop-color="#0C4A6E" />
    </linearGradient>
  </defs>
  <rect width="1600" height="1000" fill="url(#bg3)"/>
  <g opacity="0.7" fill="#7DD3FC">
    <circle cx="220" cy="270" r="110"/>
    <circle cx="540" cy="190" r="72"/>
    <circle cx="1320" cy="250" r="120"/>
  </g>
  <g stroke="#E0F2FE" stroke-width="6" opacity="0.65">
    <path d="M80 560C320 520 420 640 640 620C860 600 980 500 1220 540C1360 560 1460 640 1540 620"/>
    <path d="M60 680C300 640 420 740 640 720C860 700 980 610 1220 650C1360 670 1460 730 1560 710"/>
    <path d="M40 800C280 760 420 840 640 830C880 820 1000 730 1240 760C1380 780 1480 850 1580 840"/>
  </g>
  <g fill="#BAE6FD" opacity="0.88">
    <rect x="330" y="460" width="70" height="220" rx="30"/>
    <rect x="390" y="430" width="220" height="48" rx="24"/>
    <rect x="560" y="472" width="52" height="136" rx="20"/>
    <path d="M590 610C640 650 650 700 614 745C565 804 470 804 422 745C386 700 395 650 446 610C485 580 550 580 590 610Z"/>
  </g>
</svg>
